<svg version="1.0" xmlns="http://www.w3.org/2000/svg" width="341.333" height="341.333" viewBox="0 0 256 256"><path d="M158.5 37.4c-2.7.7-22.5 8-44 16.3C93.1 61.9 68.1 71.5 59 75c-9.1 3.4-17.8 6.8-19.4 7.4-16.2 6.2-21.6 12.3-25.1 28.2-.2 1.1-3.6 12.9-7.5 26.4C2.9 151.4.2 162.4.5 163.8c.8 3.2 2.9 3.7 15.4 3.6 6.8 0 11.1.3 11.1 1 0 .5-2.7 10.7-6.1 22.5-7.5 26.6-7.2 24.8-4.9 27.1 1.9 1.9 3.8 2 55.8 2h53.8l61-25.4c33.5-14 62.5-26.1 64.5-27 2.3-1 3.9-2.4 4.3-3.9.7-3-16.5-63.5-19.4-68.2-1.1-1.8-4.7-12.7-8-24.1-3.3-11.4-6.6-21.5-7.2-22.3-3.3-4.4-7.7-8.5-11.3-10.4-3.7-2-5.6-2.2-25-2.4-14.2-.1-22.6.3-26 1.1z"/></svg>